<svg xmlns="http://www.w3.org/2000/svg" width="16" height="16"><path fill="none" stroke="#f2f2f2" stroke-linejoin="round" stroke-opacity=".8" stroke-width="2" d="m8 1 7 3v8l-7 3-7-3V4Z"/><path fill-opacity=".8" d="M2 5h12v6l-12-.008Z" paint-order="stroke fill markers"/><path fill="#f2f2f2" d="m8 7.5-7 3V12l7 3 7-3v-1.5z"/><path fill="#f2f2f2" d="m8 15-7-3v-1.5l7 3z"/><path fill="#f2f2f2" d="m1 10.5 7 3 7-3-7-3z"/><path fill="#f2f2f2" d="m8 4.25-7 3v1.5l7 3 7-3v-1.5z"/><path fill="#f2f2f2" d="m8 11.75-7-3v-1.5l7 3z"/><path fill="#f2f2f2" d="m1 7.25 7 3 7-3-7-3z"/><path fill="#f2f2f2" d="M8 1 1 4v1.5l7 3 7-3V4Z"/><path fill="#f2f2f2" d="m1 4 7 3 7-3-7-3z"/><path fill="#f2f2f2" d="m8 8.5-7-3V4l7 3z"/></svg>
